<svg version="1.1" id="Layer_1" xmlns="http://www.w3.org/2000/svg" xmlns:xlink="http://www.w3.org/1999/xlink" x="0px" y="0px"
	 width="100%" viewBox="0 0 512 384" enable-background="new 0 0 512 384" xml:space="preserve">
<path fill="#000000" opacity="1.000000" stroke="none" 
	d="
M280.999084,131.967651 
	C290.469604,131.461441 299.296021,132.433456 308.107239,134.140045 
	C312.028809,134.899567 312.127106,137.369507 312.162781,140.350845 
	C312.198700,143.352448 311.492798,145.461472 307.981201,145.950928 
	C301.183960,146.898331 301.220490,147.007584 301.229462,154.031799 
	C301.238831,161.355820 301.380402,168.685822 301.138306,176.002426 
	C300.848816,184.749786 297.060638,188.370178 288.303558,188.249344 
	C266.509766,187.948639 244.721634,189.548569 222.924683,188.373993 
	C220.079895,188.220688 217.254257,188.127991 214.584976,187.104797 
	C210.177155,185.415222 207.459839,182.634811 207.586227,177.413223 
	C207.803696,168.429459 207.547287,159.435013 207.691681,150.448303 
	C207.746933,147.009476 206.908859,144.916550 202.998734,145.304993 
	C198.955276,145.706711 197.839966,143.416290 197.777527,139.837418 
	C197.708618,135.888794 199.834976,135.327118 203.294189,134.542664 
	C228.897232,128.736542 254.800491,133.588608 280.999084,131.967651 
z"/>
<path fill="#000000" opacity="1.000000" stroke="none" 
	d="
M298.208557,254.999939 
	C298.185150,276.151917 298.032013,296.805115 298.229065,317.454956 
	C298.277466,322.528809 296.481567,324.328766 291.542725,324.024719 
	C284.741455,323.606018 277.902924,324.459717 271.097382,323.451691 
	C260.946472,321.948151 253.841156,314.340820 253.745392,304.107819 
	C253.580185,286.455231 253.570694,268.799011 253.726868,251.146332 
	C253.824493,240.109360 262.479553,231.810242 273.577362,231.638382 
	C281.655518,231.513275 281.654663,231.513260 281.655304,223.443268 
	C281.655609,219.779205 281.630524,216.114746 281.679840,212.451309 
	C281.695404,211.297302 281.488464,209.518555 282.110962,209.094986 
	C286.283447,206.255783 291.046021,207.812698 295.543243,207.927734 
	C298.596069,208.005844 298.087158,210.988754 298.100281,213.029709 
	C298.189209,226.852768 298.183228,240.676453 298.208557,254.999939 
M271.499969,248.872040 
	C269.665497,250.583694 270.094788,252.847046 270.090881,254.961212 
	C270.063080,269.912323 270.073486,284.863525 270.085724,299.814697 
	C270.086823,301.141754 270.043610,302.493683 270.268097,303.791321 
	C271.105560,308.631531 274.970367,307.467346 278.142944,307.661591 
	C281.616119,307.874176 281.674927,305.560699 281.670715,303.055145 
	C281.642548,286.276642 281.562256,269.497223 281.717865,252.720093 
	C281.753540,248.875854 280.120361,247.626724 276.664612,247.909286 
	C275.186249,248.030167 273.716797,248.260056 271.499969,248.872040 
z"/>
<path fill="#000000" opacity="1.000000" stroke="none" 
	d="
M221.283203,264.012146 
	C221.274063,282.489075 221.138565,300.469879 221.340561,318.446899 
	C221.392517,323.069946 219.820374,324.530151 215.283783,324.394531 
	C203.175140,324.032532 204.801483,325.550781 204.763947,314.086517 
	C204.678360,287.950073 204.734070,261.813141 204.744064,235.676407 
	C204.746735,228.693466 204.779984,228.953278 211.495956,228.594498 
	C219.244446,228.180603 226.132019,231.390442 233.005539,233.826324 
	C240.706848,236.555573 244.301117,243.314102 244.315735,251.591034 
	C244.355133,273.898712 244.211090,296.207642 244.418640,318.513458 
	C244.462265,323.202087 242.836823,324.528076 238.360596,324.389709 
	C226.901352,324.035339 227.880356,325.653931 227.835007,313.918793 
	C227.759750,294.441376 227.797668,274.963501 227.783066,255.485825 
	C227.782074,254.154755 227.787003,252.820923 227.707199,251.493301 
	C227.590775,249.556793 226.609924,248.337555 224.579941,248.360489 
	C222.567825,248.383209 221.488037,249.666550 221.419266,251.532806 
	C221.272217,255.522995 221.316513,259.520233 221.283203,264.012146 
z"/>
<path fill="#000000" opacity="1.000000" stroke="none" 
	d="
M306.963623,282.999756 
	C307.232758,271.530792 306.211548,260.523376 307.538513,249.593735 
	C308.988464,237.651627 317.115448,231.400833 330.278503,231.674072 
	C341.158325,231.899918 349.357300,239.545990 350.157684,250.755386 
	C350.595123,256.882080 350.225403,263.063690 350.314178,269.219116 
	C350.359009,272.328857 348.656647,273.241974 345.911530,273.241211 
	C339.921173,273.239563 333.927216,273.435852 327.941833,273.280121 
	C324.570587,273.192383 323.124176,274.252319 323.216370,277.822754 
	C323.413818,285.472412 323.334869,293.130707 323.278839,300.784760 
	C323.253357,304.266327 324.584717,306.822876 328.178406,307.119019 
	C331.733826,307.412018 333.618164,305.160187 334.137451,301.732330 
	C334.236847,301.076141 334.401276,300.426880 334.458466,299.767761 
	C334.692993,297.062958 332.673096,293.306732 335.597412,291.899628 
	C339.471741,290.035339 344.065247,290.869843 348.356079,291.460022 
	C349.442810,291.609497 349.892395,292.481659 350.198578,293.541779 
	C353.531525,305.082153 346.030426,318.839447 334.476410,322.296783 
	C320.415283,326.504364 307.679901,316.453583 307.015869,300.471436 
	C306.781219,294.823242 306.969086,289.157471 306.963623,282.999756 
M324.323578,248.961945 
	C323.981079,250.050842 323.360291,251.139236 323.358276,252.228760 
	C323.354889,254.080872 322.384583,256.757629 324.987946,257.351013 
	C327.628906,257.953003 330.835846,258.698242 333.066650,256.570526 
	C334.891785,254.829773 334.469269,251.987427 333.412537,249.986633 
	C331.406189,246.187836 328.105896,246.835938 324.323578,248.961945 
z"/>
<path fill="#000000" opacity="1.000000" stroke="none" 
	d="
M152.673935,295.964142 
	C152.678802,280.975952 152.611053,266.481384 152.714691,251.988068 
	C152.784912,242.166489 159.293747,234.004257 168.375305,231.984390 
	C178.690048,229.690247 188.681381,233.912064 193.308945,242.349289 
	C195.424927,246.207245 195.395752,250.315979 195.358856,254.488556 
	C195.317596,259.152985 195.203323,263.823273 195.382355,268.480957 
	C195.515228,271.936890 194.086548,273.291199 190.702164,273.247345 
	C184.872971,273.171783 179.039459,273.398407 173.211136,273.299469 
	C169.955734,273.244232 168.242523,274.200012 168.322723,277.822174 
	C168.488678,285.315521 168.304794,292.816254 168.438400,300.310883 
	C168.504944,304.043488 170.084000,307.003021 174.329880,306.850464 
	C178.290756,306.708191 179.365067,303.794434 179.701080,300.286865 
	C179.975708,297.420013 178.109634,293.526825 180.981308,291.901611 
	C184.437790,289.945435 188.788437,291.033020 192.759048,291.291901 
	C193.957092,291.370026 194.787323,292.026978 195.224304,293.366791 
	C199.863937,307.591919 188.472687,323.414459 173.639862,323.271057 
	C161.834747,323.156921 152.818436,313.343689 152.682281,300.456665 
	C152.668213,299.124023 152.676422,297.791107 152.673935,295.964142 
M172.756989,257.663849 
	C179.324219,257.612488 180.881500,256.074249 179.520157,250.952423 
	C178.738571,248.011856 176.528015,247.301361 173.831314,247.358749 
	C170.396408,247.431839 168.775711,249.459717 168.437775,252.604904 
	C168.162125,255.170212 168.149796,257.778564 172.756989,257.663849 
z"/>
<path fill="#000000" opacity="1.000000" stroke="none" 
	d="
M301.292175,124.834145 
	C302.497925,129.948380 299.777344,130.427536 296.052979,130.411362 
	C273.919922,130.315277 251.786194,130.302612 229.652939,130.358246 
	C224.503799,130.371185 219.357162,130.816345 214.206497,130.955612 
	C209.074249,131.094421 207.812912,129.758011 208.766693,124.717812 
	C210.187576,117.208977 215.041016,112.013756 221.057373,107.820122 
	C226.156067,104.266151 231.793488,101.827972 237.913925,100.602089 
	C240.954102,99.993179 243.107391,98.855164 242.821289,95.087143 
	C242.591782,92.064796 244.316544,90.597878 247.468201,90.664627 
	C252.624741,90.773827 257.785309,90.716858 262.944000,90.691399 
	C265.791473,90.677338 267.560272,91.970543 267.215576,94.877968 
	C266.731781,98.958969 269.167145,99.900215 272.366333,100.675453 
	C281.945099,102.996574 290.441345,107.191521 296.806824,115.076263 
	C299.072998,117.883316 300.401489,121.017899 301.292175,124.834145 
M260.374664,94.754829 
	C256.891052,94.655762 253.407913,94.519844 249.923630,94.477478 
	C248.692978,94.462509 247.539291,94.872879 247.435165,96.357178 
	C247.309723,98.145569 248.525742,98.612228 250.007263,98.624992 
	C253.332703,98.653664 256.668304,98.803513 259.981201,98.600784 
	C262.965057,98.418182 263.703339,97.141273 260.374664,94.754829 
z"/>
<path fill="#000000" opacity="1.000000" stroke="none" 
	d="
M133.869843,261.332520 
	C133.795822,273.110443 133.670578,284.424866 133.658707,295.739410 
	C133.653778,300.439606 134.537949,304.853485 139.786179,306.541107 
	C142.060104,307.272278 142.372772,308.812286 142.359848,310.758392 
	C142.343277,313.254639 142.408066,315.752258 142.350754,318.247253 
	C142.236877,323.205505 141.134567,323.978912 136.200943,322.671539 
	C125.176933,319.750183 117.762123,310.365540 117.689606,298.921448 
	C117.593643,283.777069 117.534225,268.630096 117.733421,253.487839 
	C117.787788,249.354843 116.415512,247.540527 112.325470,248.038513 
	C107.977699,248.567871 106.094788,246.765915 106.647369,242.380493 
	C106.791817,241.234146 106.658150,240.053329 106.659843,238.888336 
	C106.669601,232.153931 106.664680,232.024445 113.606598,231.718750 
	C116.630547,231.585587 117.721329,230.367706 117.676964,227.451874 
	C117.578720,220.995163 117.646378,214.535934 117.646378,207.609039 
	C121.990417,207.609039 125.780579,207.661102 129.568512,207.591644 
	C132.325943,207.541077 133.438156,208.822418 133.401794,211.526413 
	C133.334656,216.518066 133.525116,221.515030 133.379990,226.503159 
	C133.273193,230.172943 134.294632,231.923828 138.465851,231.763397 
	C144.788498,231.520218 144.792618,231.805954 144.487000,238.161636 
	C144.423080,239.490875 144.281494,240.840622 144.432129,242.151443 
	C144.917862,246.378372 143.366867,248.505341 138.879486,247.985718 
	C135.246796,247.565063 133.654037,249.385284 133.723587,252.903961 
	C133.776062,255.558884 133.817841,258.214020 133.869843,261.332520 
z"/>
<path fill="#000000" opacity="1.000000" stroke="none" 
	d="
M359.648560,290.999817 
	C359.655365,272.836151 359.800293,255.170746 359.576294,237.510025 
	C359.517639,232.884430 361.037628,231.086166 365.570709,231.651047 
	C369.589661,232.151871 373.864838,230.373215 377.300110,234.861908 
	C378.478973,236.402283 382.936462,235.066589 385.936829,235.487885 
	C398.155273,237.203629 405.662354,247.684631 402.904938,260.805542 
	C401.724701,266.421570 395.135651,262.291473 391.122406,263.241150 
	C388.735840,263.805878 387.385162,262.450195 387.562744,259.817902 
	C387.640472,258.665619 387.537292,257.484100 387.375214,256.335754 
	C386.834778,252.506226 384.612183,251.031708 380.761353,251.271759 
	C376.953949,251.509109 376.037750,253.830353 375.977173,256.970551 
	C375.755585,268.459473 375.511963,279.948486 375.388794,291.438660 
	C375.288757,300.769440 375.264008,310.103027 375.385986,319.433014 
	C375.427765,322.627289 374.206299,323.811157 371.044739,324.010559 
	C359.645996,324.729431 359.645325,324.813202 359.635742,313.496063 
	C359.629517,306.163971 359.643768,298.831909 359.648560,290.999817 
z"/>
<path fill="#000000" opacity="1.000000" stroke="none" 
	d="
M312.999939,341.304749 
	C246.378967,341.304504 180.257935,341.329895 114.137199,341.203339 
	C111.640610,341.198578 107.068352,343.220398 107.021530,338.500702 
	C106.973274,333.634644 111.608521,335.785645 114.057678,335.782257 
	C207.992584,335.654114 301.927734,335.654205 395.862671,335.769287 
	C398.360565,335.772339 402.923981,333.763824 402.967194,338.497314 
	C403.011932,343.397888 398.379028,341.184418 395.942139,341.200226 
	C368.462341,341.378204 340.980927,341.308075 312.999939,341.304749 
z"/>
<path fill="#000000" opacity="1.000000" stroke="none" 
	d="
M223.751740,62.137482 
	C222.416245,67.686684 223.914932,72.256660 226.529724,76.715439 
	C230.757339,83.924477 230.250839,87.879791 224.618637,94.624794 
	C222.995193,93.807014 223.631699,92.277000 223.719711,91.125160 
	C224.185852,85.024109 220.920593,80.418808 217.942062,75.597466 
	C212.510910,66.806084 217.627487,56.215519 228.523911,54.672100 
	C226.832840,57.269699 225.367050,59.521229 223.751740,62.137482 
z"/>
<path fill="#000000" opacity="1.000000" stroke="none" 
	d="
M282.551941,61.905045 
	C285.234619,57.714130 288.301605,54.751587 293.196503,54.410835 
	C293.526978,55.695728 292.928894,56.300957 292.434814,56.949207 
	C287.223145,63.786938 286.997467,68.523972 291.524384,76.024437 
	C296.085205,83.581047 295.795929,87.027023 289.983887,94.353729 
	C289.700531,94.230194 289.169189,94.090546 289.174255,93.974342 
	C289.509094,86.315582 286.440155,79.902603 282.310242,73.691231 
	C279.939758,70.126045 280.607605,66.054573 282.551941,61.905045 
z"/>
<path fill="#000000" opacity="1.000000" stroke="none" 
	d="
M308.750183,109.170174 
	C308.636780,104.766060 306.331940,101.599991 304.771027,98.152870 
	C301.249084,90.375092 304.366241,83.282227 312.685608,80.419952 
	C312.713013,80.910637 312.939941,81.519226 312.732758,81.771996 
	C307.972839,87.579224 308.521637,93.500175 311.881012,99.778679 
	C315.151917,105.891785 314.457855,110.035851 309.806854,115.120811 
	C308.008484,113.506363 309.170746,111.369316 308.750183,109.170174 
z"/>
<path fill="#000000" opacity="1.000000" stroke="none" 
	d="
M203.774445,100.266243 
	C206.801056,106.780907 206.472839,109.360466 202.186920,114.492371 
	C200.917587,114.137497 200.879242,113.038689 200.936920,112.086891 
	C201.220398,107.409370 199.512253,103.428368 197.261612,99.420013 
	C193.277863,92.324997 196.411453,84.585449 204.970490,81.906357 
	C200.306107,87.813339 200.304977,93.828438 203.774445,100.266243 
z"/>
</svg>